<?xml version="1.0" standalone="no"?>
<!DOCTYPE svg PUBLIC "-//W3C//DTD SVG 20010904//EN"
 "http://www.w3.org/TR/2001/REC-SVG-20010904/DTD/svg10.dtd">
<svg version="1.0" xmlns="http://www.w3.org/2000/svg"
 width="800.000000pt" height="500.000000pt" viewBox="0 0 800.000000 500.000000"
 preserveAspectRatio="xMidYMid meet">

<g transform="translate(0.000000,500.000000) scale(0.100000,-0.100000)"
fill="#000000" stroke="none">
<path d="M6733 4303 c7 -11 39 -19 117 -28 42 -5 43 -4 24 9 -25 18 -150 34
-141 19z"/>
<path d="M6984 4261 c19 -20 19 -20 -84 -9 -19 2 -24 -1 -22 -15 3 -15 0 -17
-17 -8 -34 19 -46 12 -23 -12 32 -34 27 -42 -10 -14 -53 40 -91 55 -121 50
-15 -3 -27 -12 -27 -19 0 -9 -12 -14 -32 -15 -35 0 -85 -17 -58 -19 12 0 12
-3 -2 -14 -16 -11 -11 -14 40 -26 86 -19 127 -34 130 -48 3 -19 -40 -14 -73 8
-16 11 -48 22 -71 26 -46 7 -107 -3 -99 -16 2 -4 -17 -12 -43 -17 -26 -6 -56
-14 -67 -17 l-20 -8 20 18 20 17 -20 -8 c-11 -4 -27 -9 -35 -12 -21 -8 30 30
60 44 24 11 24 11 3 12 -12 1 -32 -3 -45 -8 -13 -5 -36 -12 -52 -16 -24 -5
-27 -8 -15 -17 11 -8 10 -9 -4 -4 -10 3 -28 -1 -41 -9 -12 -8 -26 -12 -29 -8
-4 3 -7 -3 -7 -14 0 -16 -6 -20 -29 -19 l-30 1 24 30 c13 17 30 28 37 27 7 -2
10 0 6 4 -4 4 -2 14 5 22 10 13 8 14 -13 7 -14 -4 -31 -17 -39 -27 -7 -11 -19
-17 -27 -14 -21 8 -74 -76 -74 -116 1 -18 9 -51 20 -73 10 -22 17 -43 14 -46
-6 -10 105 0 126 11 9 5 51 9 91 8 41 -1 94 1 119 5 44 7 46 7 57 -23 8 -20
18 -30 32 -30 27 0 27 -4 -10 -41 -24 -24 -28 -34 -18 -45 9 -11 8 -14 -4 -14
-14 0 -14 -3 -2 -26 8 -15 11 -41 8 -60 -6 -37 20 -86 64 -119 14 -11 37 -30
50 -42 25 -24 43 -29 43 -13 0 6 3 10 8 10 4 0 7 -27 7 -61 0 -48 4 -62 18
-71 18 -9 18 -11 1 -29 -9 -10 -25 -19 -34 -19 -10 0 -21 -7 -24 -16 -3 -8 -9
-13 -14 -11 -12 8 -37 -16 -53 -50 -7 -18 -20 -33 -26 -33 -7 0 -13 -9 -13
-20 0 -11 -4 -20 -10 -20 -5 0 -9 -5 -7 -11 1 -6 -4 -14 -12 -17 -10 -3 -12 0
-8 14 6 15 3 14 -13 -5 -19 -22 -28 -71 -12 -71 6 0 8 -47 3 -102 0 -10 -8
-18 -16 -18 -8 0 -15 -4 -15 -8 0 -5 -16 -29 -36 -55 -20 -25 -33 -50 -30 -55
3 -6 -1 -12 -9 -16 -8 -3 -15 -17 -15 -31 0 -14 -5 -25 -10 -25 -7 0 -9 -13
-5 -33 4 -20 0 -58 -10 -93 -9 -32 -17 -67 -16 -76 0 -10 -4 -18 -10 -18 -5 0
-9 6 -9 13 -1 8 -4 7 -10 -3 -4 -9 -8 -31 -7 -50 3 -51 32 -61 193 -65 76 -2
131 1 128 6 -8 13 10 11 23 -2 28 -28 118 49 98 82 -4 5 0 21 9 34 9 13 16 34
16 45 0 11 7 23 15 26 9 4 15 19 15 37 0 29 44 107 61 107 4 0 10 -6 12 -12 3
-8 6 -6 6 5 1 10 11 31 22 47 13 16 19 36 15 45 -3 10 3 25 17 38 22 21 61 91
62 111 0 17 25 18 25 2 0 -9 -4 -16 -8 -16 -10 0 -7 -74 4 -121 4 -19 7 -39 6
-45 -1 -7 6 -14 16 -16 11 -3 22 -18 26 -34 11 -43 25 -55 46 -44 15 8 20 6
24 -8 5 -14 16 -18 44 -18 40 1 102 25 102 40 0 17 35 35 66 36 31 0 51 21 38
41 -3 5 2 9 10 9 12 0 16 11 16 44 0 28 5 46 14 49 9 4 16 30 20 79 4 40 12
96 18 123 12 58 58 177 72 186 5 4 9 83 10 175 1 132 -3 181 -16 224 -9 30
-20 77 -24 104 -4 28 -23 78 -46 117 -22 37 -40 78 -41 91 -1 13 -30 52 -69
92 -38 38 -68 72 -68 77 0 14 -41 21 -55 9 -8 -7 -15 -22 -15 -33 0 -22 -10
-18 -14 5 -3 24 -39 77 -48 71 -5 -3 -18 3 -29 13 -15 14 -22 15 -28 6 -8 -13
-101 -13 -101 1 0 4 -5 7 -12 7 -6 0 -4 -8 6 -19z m-456 -178 c-10 -2 -26 -2
-35 0 -10 3 -2 5 17 5 19 0 27 -2 18 -5z m44 -43 c20 0 -2 -13 -25 -16 -12 -1
-32 -5 -45 -9 -18 -6 -21 -4 -16 8 6 16 39 27 62 21 8 -2 19 -4 24 -4z m118
-17 c19 -4 7 -9 -45 -19 -105 -19 -114 -18 -74 10 33 23 52 24 119 9z m-55
-103 c-3 -5 -18 -10 -33 -10 -21 0 -24 2 -12 10 20 13 53 13 45 0z m462 -335
c13 -9 29 -31 38 -49 31 -64 3 -150 -108 -344 -29 -50 -74 -85 -105 -81 -33 3
-42 -1 -43 -18 0 -13 -3 -11 -11 7 -5 14 -8 52 -5 85 5 71 1 90 -18 75 -17
-14 -31 5 -42 60 -20 99 49 207 162 254 70 29 102 32 132 11z m-367 -115 c0
-5 -4 -10 -10 -10 -5 0 -10 5 -10 10 0 6 5 10 10 10 6 0 10 -4 10 -10z m-79
-296 c12 -15 2 -23 -22 -17 -12 3 -19 14 -19 28 0 27 23 40 29 16 2 -9 7 -21
12 -27z m-51 -108 c0 -5 -7 -3 -15 4 -8 7 -12 17 -9 22 7 10 24 -9 24 -26z
m10 -32 c0 -7 -27 -34 -35 -34 -3 0 -1 9 5 20 10 18 30 28 30 14z m320 -66 c0
-25 -3 -29 -10 -18 -13 20 -13 50 0 50 6 0 10 -15 10 -32z"/>
<path d="M7036 3569 c3 -5 -12 -9 -34 -9 -52 0 -75 -27 -82 -93 -5 -52 -5 -52
-37 -49 -42 4 -43 -12 -2 -30 l31 -13 -7 -67 c-5 -56 -4 -68 8 -68 8 0 22 12
32 26 9 14 29 31 43 37 19 8 27 19 27 37 0 18 5 25 18 24 18 -2 23 21 9 43 -4
7 -22 18 -40 26 -32 13 -32 13 -12 32 11 10 20 24 20 32 0 7 7 13 15 13 8 0
15 -8 15 -19 0 -10 7 -24 16 -32 12 -10 15 -26 11 -68 -2 -31 -8 -66 -12 -78
-5 -15 -3 -23 4 -23 15 0 55 90 69 155 11 52 1 87 -33 115 -18 15 -68 23 -59
9z m-11 -39 c3 -5 1 -10 -4 -10 -6 0 -11 5 -11 10 0 6 2 10 4 10 3 0 8 -4 11
-10z"/>
<path d="M6544 4252 c2 -4 19 -8 38 -9 30 -1 31 -1 8 7 -33 11 -52 12 -46 2z"/>
<path d="M6400 4217 c-14 -6 -29 -17 -33 -24 -4 -7 -18 -13 -30 -13 -12 0 -29
-5 -37 -10 -29 -19 23 -11 63 9 20 10 48 22 62 25 14 4 25 11 25 16 0 13 -18
12 -50 -3z"/>
<path d="M6122 4118 c-7 -7 -12 -19 -12 -27 1 -12 4 -11 12 4 6 11 16 23 22
27 7 5 8 8 1 8 -6 0 -16 -5 -23 -12z"/>
<path d="M461 3454 l-24 -17 7 -176 c4 -97 16 -349 27 -561 20 -391 24 -463
59 -1085 11 -192 22 -397 25 -455 7 -120 21 -186 41 -194 8 -3 37 0 64 6 31 7
54 8 59 2 11 -11 111 -261 111 -276 0 -7 -20 -9 -62 -4 -35 3 -105 11 -155 16
-118 12 -267 -2 -324 -30 -40 -21 -88 -82 -69 -88 6 -2 10 -11 10 -19 0 -9 -6
-13 -15 -10 -8 4 -22 -5 -34 -21 -19 -28 -43 -130 -39 -167 3 -18 -4 -20 -69
-23 -43 -2 -73 -7 -73 -14 0 -6 10 -8 24 -4 29 7 86 -3 86 -15 0 -5 -25 -9
-55 -9 l-55 0 0 -155 0 -155 486 0 486 0 -6 25 c-4 14 -9 45 -13 70 -6 45 -18
52 -51 32 -7 -5 -12 -4 -12 2 0 6 -11 11 -24 11 -12 0 -35 11 -51 25 -23 23
-26 31 -20 63 3 20 19 53 34 72 22 28 37 36 72 40 32 4 45 10 47 23 6 32 -7
63 -30 75 l-23 11 23 7 c12 3 22 13 22 20 0 25 61 52 157 70 134 24 433 17
481 -11 30 -18 32 -23 32 -72 0 -39 4 -53 14 -53 8 0 21 -3 30 -6 11 -4 16 -1
16 11 0 13 6 15 28 11 26 -5 125 -14 226 -21 66 -4 45 9 -36 24 -124 21 -208
43 -202 52 3 5 -4 9 -15 9 -11 0 -25 10 -32 21 -23 44 -94 111 -142 136 -39
19 -62 24 -106 22 -31 -2 -62 0 -69 4 -22 14 -75 -4 -109 -38 l-33 -33 -57 19
c-32 10 -71 22 -88 26 l-30 7 35 4 c19 2 40 8 45 13 7 7 4 8 -8 4 -37 -15 -64
3 -75 47 l-11 43 2 -53 2 -54 -49 7 c-58 7 -66 11 -66 31 0 8 -6 14 -14 14 -8
0 -19 12 -24 28 -6 15 -29 71 -51 125 -53 125 -53 133 2 143 23 4 53 8 67 9
14 1 41 5 62 9 35 8 36 7 43 -23 4 -17 10 -62 15 -99 l7 -67 2 65 c2 61 3 64
16 40 7 -14 16 -24 19 -22 16 6 37 1 34 -10 -1 -7 1 -25 5 -40 6 -24 13 -28
42 -28 43 0 45 -14 5 -29 -38 -13 -39 -31 -1 -31 36 0 51 36 40 95 -11 58 -11
125 1 125 6 0 10 -8 10 -17 0 -15 2 -16 9 -3 6 8 7 18 5 22 -3 4 -3 8 1 8 3 0
10 -10 15 -22 7 -17 9 -8 7 39 -1 34 3 66 8 71 14 12 265 75 272 68 4 -3 -3
-6 -14 -6 -14 0 -22 -8 -26 -27 -7 -36 -92 -131 -160 -179 -56 -40 -77 -62
-77 -78 0 -7 3 -8 8 -1 4 6 25 19 47 30 22 11 75 55 119 98 56 57 81 76 89 68
15 -15 62 -14 75 2 8 9 7 21 -3 41 -8 16 -15 35 -15 42 0 8 -8 14 -17 14 -9 0
-14 2 -12 4 2 3 193 52 424 110 231 59 430 111 443 116 13 6 22 18 22 31 l0
21 34 -21 c37 -23 40 -23 386 29 119 17 326 27 292 13 -18 -7 -15 -21 8 -28
11 -3 20 -15 20 -26 0 -10 5 -19 10 -19 6 0 10 -7 10 -15 0 -32 19 -13 25 26
8 43 25 48 36 8 6 -19 7 -15 8 19 l1 42 -47 0 c-54 0 -54 7 -1 13 20 2 43 9
50 15 8 6 47 15 88 21 41 5 190 26 330 46 140 19 347 48 459 64 136 19 206 33
212 42 5 8 7 66 3 134 -3 66 -18 398 -33 737 -14 339 -29 620 -33 624 -9 8
-268 19 -773 34 -209 6 -502 17 -651 25 -149 8 -314 15 -367 15 -92 0 -96 -1
-115 -27 l-19 -26 -18 31 c-15 25 -27 32 -59 36 -161 21 -1052 125 -1456 171
-118 14 -233 27 -255 30 -29 4 -47 1 -64 -11z m269 -134 c118 -11 367 -35 510
-50 52 -5 239 -24 415 -40 176 -17 372 -36 435 -43 l115 -12 17 -35 c9 -19 17
-54 18 -77 l0 -43 -43 0 c-24 0 -209 13 -413 29 -471 38 -614 48 -961 70 -156
9 -285 20 -288 23 -8 7 -9 174 -1 186 3 5 25 8 48 6 24 -2 90 -8 148 -14z
m2220 -150 c674 -16 1173 -32 1215 -39 l40 -7 6 -74 c4 -41 9 -140 13 -220 3
-80 11 -235 18 -345 6 -110 12 -252 12 -316 l1 -117 -52 -51 c-30 -29 -65 -54
-82 -57 -20 -4 -31 -14 -35 -30 -4 -14 -22 -32 -44 -43 -20 -10 -76 -58 -124
-105 -48 -47 -100 -89 -115 -93 -16 -5 -89 -8 -163 -8 -119 1 -137 -1 -150
-18 -18 -22 -46 -15 -53 14 -7 25 -28 32 -61 19 -21 -8 -27 -15 -23 -30 3 -13
-3 -24 -19 -35 -34 -22 -305 -56 -434 -54 -75 1 -115 -3 -140 -14 -30 -13 -39
-13 -60 -1 -14 7 -35 13 -47 14 -27 0 -42 43 -25 71 9 15 6 22 -19 43 -17 14
-39 26 -50 26 -10 0 -28 9 -40 21 -11 11 -27 18 -34 15 -32 -12 -38 24 -51
297 -21 447 -34 751 -40 955 l-7 192 79 0 c43 0 261 -5 484 -10z m-2373 -196
c-3 -3 -12 -4 -19 -1 -8 3 -5 6 6 6 11 1 17 -2 13 -5z m148 -4 c59 -7 58 -7
-32 -9 -52 0 -94 3 -98 9 -7 11 40 12 130 0z m-85 -140 c0 -5 -11 -10 -24 -10
-14 0 -28 5 -31 10 -4 6 7 10 24 10 17 0 31 -4 31 -10z m105 0 c6 -10 -80 -8
-91 3 -4 4 13 7 39 7 25 0 48 -4 52 -10z m105 -2 c0 -4 -21 -8 -47 -8 -27 0
-43 4 -36 8 17 10 83 10 83 0z m98 -5 c-16 -2 -40 -2 -55 0 -16 2 -3 4 27 4
30 0 43 -2 28 -4z m-283 -133 c-3 -5 -17 -10 -31 -10 -13 0 -24 5 -24 10 0 6
14 10 31 10 17 0 28 -4 24 -10z m45 0 c0 -5 -4 -10 -9 -10 -6 0 -13 5 -16 10
-3 6 1 10 9 10 9 0 16 -4 16 -10z m79 -1 c-16 -6 -35 -6 -50 0 -20 8 -16 10
26 10 43 -1 46 -2 24 -10z m111 1 c0 -5 -9 -10 -20 -10 -11 0 -20 5 -20 10 0
6 9 10 20 10 11 0 20 -4 20 -10z m50 0 c0 -5 -7 -10 -15 -10 -8 0 -15 5 -15
10 0 6 7 10 15 10 8 0 15 -4 15 -10z m55 0 c-3 -5 -15 -10 -26 -10 -10 0 -19
5 -19 10 0 6 12 10 26 10 14 0 23 -4 19 -10z m55 0 c0 -5 -9 -10 -20 -10 -11
0 -20 5 -20 10 0 6 9 10 20 10 11 0 20 -4 20 -10z m-100 -130 c0 -6 -36 -9
-92 -8 -89 1 -90 2 -33 8 96 11 125 11 125 0z m-120 -68 c20 -8 -107 -19 -145
-12 -22 4 -12 6 35 10 36 3 72 6 80 7 8 1 22 -1 30 -5z m190 -2 c-97 -11 -172
-11 -165 -1 3 6 56 9 118 9 102 -1 106 -2 47 -8z m-275 -140 c4 -6 -8 -10 -27
-11 -18 0 -54 -3 -80 -5 -28 -3 -48 0 -48 5 0 6 30 12 68 14 37 2 70 4 74 5 4
1 10 -2 13 -8z m5 -210 c0 -5 -17 -11 -37 -11 -21 -1 -56 -3 -78 -4 -50 -3
-70 7 -30 16 49 11 145 10 145 -1z m53 3 c-7 -2 -21 -2 -30 0 -10 3 -4 5 12 5
17 0 24 -2 18 -5z m197 -113 c0 -5 -10 -10 -22 -9 -22 0 -22 1 -3 9 11 5 21 9
23 9 1 1 2 -3 2 -9z m-55 -10 c-3 -5 -24 -10 -46 -10 -24 0 -38 4 -34 10 3 6
24 10 46 10 24 0 38 -4 34 -10z m-156 -14 c-11 -11 -79 -17 -79 -8 0 6 17 12
38 14 37 3 49 1 41 -6z m-94 -6 c3 -5 -1 -10 -9 -10 -9 0 -16 5 -16 10 0 6 4
10 9 10 6 0 13 -4 16 -10z m-50 -10 c-3 -5 -15 -10 -26 -10 -10 0 -19 5 -19
10 0 6 12 10 26 10 14 0 23 -4 19 -10z m370 -30 c-28 -12 -65 -12 -65 0 0 6
19 10 43 9 32 0 37 -2 22 -9z m-90 -10 c-3 -5 -10 -10 -16 -10 -5 0 -9 5 -9
10 0 6 7 10 16 10 8 0 12 -4 9 -10z m-70 -10 c-11 -5 -40 -9 -65 -9 -34 0 -40
3 -25 9 11 5 40 9 65 9 34 0 40 -3 25 -9z m-115 -10 c0 -5 -14 -10 -31 -10
-17 0 -28 4 -24 10 3 6 17 10 31 10 13 0 24 -4 24 -10z m-110 -10 c0 -5 -7
-10 -15 -10 -8 0 -15 5 -15 10 0 6 7 10 15 10 8 0 15 -4 15 -10z m37 4 c-3 -3
-12 -4 -19 -1 -8 3 -5 6 6 6 11 1 17 -2 13 -5z m373 -24 c0 -5 -6 -10 -14 -10
-7 0 -28 -3 -45 -6 -19 -4 -31 -2 -31 4 0 6 17 13 38 15 20 2 40 4 45 5 4 1 7
-2 7 -8z m-126 -20 c-33 -12 -134 -19 -134 -9 0 8 17 10 97 13 11 1 25 4 29 8
4 4 11 5 17 1 6 -4 2 -9 -9 -13z m-167 -21 c-14 -8 -22 -8 -30 0 -8 8 -3 11
19 11 25 -1 27 -2 11 -11z m-97 -143 c0 -3 -4 -8 -10 -11 -5 -3 -10 -1 -10 4
0 6 5 11 10 11 6 0 10 -2 10 -4z m1840 -16 c19 -10 19 -11 2 -29 -21 -22 -32
-17 -32 15 0 27 3 28 30 14z m-1484 -9 c-3 -4 -29 -11 -58 -15 -29 -3 -68 -9
-85 -12 -18 -4 -33 -2 -33 3 0 5 28 14 63 20 83 13 119 15 113 4z m-211 -31
c-3 -5 -13 -10 -21 -10 -8 0 -14 5 -14 10 0 6 9 10 21 10 11 0 17 -4 14 -10z
m-90 -10 c3 -5 2 -10 -3 -10 -5 0 -24 -3 -41 -6 -19 -4 -31 -2 -31 4 0 6 12
13 28 15 15 2 30 5 34 6 4 0 10 -3 13 -9z m35 6 c0 -3 -4 -8 -10 -11 -5 -3
-10 -1 -10 4 0 6 5 11 10 11 6 0 10 -2 10 -4z m1796 -21 c13 -20 14 -28 4 -40
-18 -22 -7 -28 24 -13 23 10 29 9 36 -2 11 -18 -6 -40 -30 -40 -10 0 -21 6
-23 13 -4 9 -8 8 -16 -3 -14 -20 -24 -6 -28 41 -4 40 1 69 11 69 3 0 13 -11
22 -25z m-1576 -84 c-22 -12 -116 -23 -105 -12 11 10 45 18 90 19 21 1 25 -1
15 -7z m-125 -21 c4 -6 -6 -10 -22 -10 -22 0 -25 2 -13 10 19 12 27 12 35 0z
m325 -10 c0 -5 -12 -10 -27 -10 -22 0 -25 2 -13 10 20 13 40 13 40 0z m-66 -7
c4 -4 -34 -15 -85 -25 -51 -10 -94 -16 -97 -13 -7 7 45 25 76 26 15 1 38 5 52
9 34 11 45 11 54 3z m-434 -7 c0 -11 -19 -15 -25 -6 -3 5 1 10 9 10 9 0 16 -2
16 -4z m210 -36 c0 -5 -7 -10 -16 -10 -8 0 -12 5 -9 10 3 6 10 10 16 10 5 0 9
-4 9 -10z m-130 -30 c-20 -13 -50 -13 -50 0 0 6 15 10 33 10 24 0 28 -3 17
-10z m364 0 c-22 -9 -146 -23 -128 -15 15 8 95 23 124 23 23 1 24 0 4 -8z
m-174 -30 c0 -5 -10 -10 -22 -10 -19 0 -20 2 -8 10 19 13 30 13 30 0z m-186
-41 c-10 -4 -28 -8 -39 -7 -15 0 -13 3 10 13 17 7 34 10 39 7 5 -3 1 -9 -10
-13z m656 -43 c0 -22 -6 -36 -16 -40 -27 -10 -31 -7 -32 28 -1 33 4 39 41 45
4 0 7 -14 7 -33z m55 24 c-3 -5 -16 -10 -28 -10 -18 0 -19 2 -7 10 20 13 43
13 35 0z m-12 -37 c-7 -2 -19 -2 -25 0 -7 3 -2 5 12 5 14 0 19 -2 13 -5z
m-206 -9 c-3 -3 -12 -4 -19 -1 -8 3 -5 6 6 6 11 1 17 -2 13 -5z m-100 -41 c2
-18 0 -33 -6 -33 -5 0 -16 -3 -24 -6 -11 -4 -17 4 -22 25 -8 38 1 53 28 49 15
-2 22 -12 24 -35z m48 27 c-3 -5 -13 -10 -21 -10 -8 0 -12 5 -9 10 3 6 13 10
21 10 8 0 12 -4 9 -10z m60 -20 c3 -5 -1 -10 -10 -10 -9 0 -13 5 -10 10 3 6 8
10 10 10 2 0 7 -4 10 -10z m-340 -20 c17 0 21 -5 19 -31 -2 -35 -2 -34 -30
-43 -18 -5 -22 0 -31 39 -11 46 -7 63 11 45 5 -5 19 -10 31 -10z m95 1 c0 -5
-13 -11 -30 -13 -16 -3 -30 -1 -30 3 0 7 10 10 53 18 4 0 7 -3 7 -8z m200 5
c0 -2 -11 -6 -25 -8 -13 -3 -22 -1 -19 3 5 9 44 13 44 5z m-443 -22 c-3 -3
-12 -4 -19 -1 -8 3 -5 6 6 6 11 1 17 -2 13 -5z m-82 -74 c0 -47 -30 -54 -39
-9 -7 37 0 51 22 47 12 -2 17 -14 17 -38z m85 0 c-8 -5 -19 -10 -25 -10 -5 0
-3 5 5 10 8 5 20 10 25 10 6 0 3 -5 -5 -10z m5 -705 c22 -2 45 -4 50 -4 17 -3
-56 -31 -80 -31 -12 0 -35 -10 -49 -21 -24 -19 -36 -21 -97 -16 -41 3 -69 2
-69 -4 0 -17 -50 -9 -70 11 -17 17 -19 24 -9 43 7 12 17 26 23 30 9 7 99 5
301 -8z m0 -135 c-3 -5 -12 -10 -18 -10 -7 0 -6 4 3 10 19 12 23 12 15 0z
m-344 -110 c21 -12 25 -40 7 -58 -14 -14 -58 -16 -58 -3 0 5 -10 11 -22 13
-15 2 -24 11 -26 26 -3 22 -1 23 27 17 20 -4 31 -3 31 4 0 14 16 14 41 1z m79
-70 c0 -5 -4 -10 -9 -10 -6 0 -13 5 -16 10 -3 6 1 10 9 10 9 0 16 -4 16 -10z"/>
<path d="M2680 1620 c0 -5 9 -10 21 -10 11 0 17 5 14 10 -3 6 -13 10 -21 10
-8 0 -14 -4 -14 -10z"/>
<path d="M362 3380 c0 -14 2 -19 5 -12 2 6 2 18 0 25 -3 6 -5 1 -5 -13z"/>
<path d="M6134 3385 c-8 -19 1 -54 19 -79 20 -27 76 -24 101 6 10 13 23 24 30
24 6 1 17 2 24 3 6 0 12 7 12 15 0 25 -33 27 -77 5 -42 -21 -44 -22 -63 -4
-11 10 -20 24 -20 32 0 18 -19 17 -26 -2z"/>
<path d="M377 3040 c7 -346 85 -1695 113 -1954 4 -43 13 -83 19 -89 7 -7 8 0
1 24 -5 19 -16 149 -24 289 -9 140 -23 363 -31 495 -26 433 -44 745 -60 1040
-20 394 -23 422 -18 195z"/>
<path d="M6173 3024 c-17 -18 -29 -22 -51 -18 -18 4 -42 0 -62 -11 -28 -14
-31 -19 -18 -31 17 -17 94 -21 129 -6 28 11 39 30 39 68 0 29 -8 29 -37 -2z"/>
<path d="M5207 3003 c-10 -9 -9 -51 2 -71 10 -20 26 -1001 16 -1031 -5 -16
-15 -21 -41 -21 -27 0 -34 -4 -34 -20 0 -25 28 -40 62 -33 20 4 30 -1 43 -21
16 -24 22 -26 96 -26 53 0 90 -5 114 -17 36 -17 36 -17 58 10 16 19 39 31 82
41 103 23 180 36 221 36 21 0 77 6 124 14 47 8 124 19 172 26 95 13 105 22 94
78 -3 15 -10 180 -17 367 -6 187 -14 357 -19 378 -15 71 -7 79 76 76 41 -1 77
0 80 3 11 11 -50 98 -68 98 -4 0 -8 -7 -8 -16 0 -20 -17 -36 -59 -57 -49 -24
-70 -21 -89 13 -9 16 -21 30 -26 30 -5 0 -4 6 2 13 5 6 13 22 16 35 7 20 4 22
-32 22 -25 0 -49 8 -66 21 -31 24 -29 24 -370 44 -279 16 -419 19 -429 8z"/>
<path d="M6220 2854 c0 -8 5 -12 10 -9 6 3 10 10 10 16 0 5 -4 9 -10 9 -5 0
-10 -7 -10 -16z"/>
<path d="M6180 2840 c0 -5 5 -10 11 -10 5 0 7 5 4 10 -3 6 -8 10 -11 10 -2 0
-4 -4 -4 -10z"/>
<path d="M7452 1882 c29 -12 5 -36 -27 -28 -15 4 -45 1 -69 -7 -107 -37 -108
-37 -135 -23 -16 8 -34 10 -46 5 -11 -4 -30 -8 -43 -8 -34 -1 -48 -20 -44 -57
6 -48 -24 -77 -80 -76 -36 1 -45 -3 -55 -24 -11 -23 -10 -24 9 -18 15 4 19 2
16 -7 -2 -8 -24 -20 -48 -28 -43 -14 -65 -28 -100 -64 -12 -12 -25 -17 -38
-13 -24 8 -109 -44 -91 -55 14 -8 39 -1 39 12 0 13 48 11 87 -3 27 -10 38 -10
53 0 26 16 47 15 54 -3 5 -14 -29 -55 -46 -55 -4 0 -8 -6 -8 -12 0 -7 -24 -29
-53 -48 -28 -19 -74 -52 -102 -72 -27 -21 -63 -45 -80 -53 -16 -9 -37 -19 -45
-24 -8 -5 -49 -23 -90 -41 -41 -18 -82 -40 -90 -49 -9 -11 -33 -18 -65 -19
-68 -4 -106 -12 -130 -28 -24 -17 -14 -17 76 -3 39 6 81 8 95 5 l24 -6 -23
-26 c-29 -35 -168 -99 -235 -108 -36 -6 -10 -19 40 -20 105 -4 223 39 291 107
27 26 54 48 60 48 7 1 19 2 27 3 32 2 179 81 183 98 3 10 14 18 26 18 11 0 35
15 54 33 39 38 203 167 212 167 3 0 18 11 33 25 30 28 50 19 32 -16 -28 -50
-194 -230 -252 -272 -35 -25 -76 -56 -92 -70 -16 -14 -41 -31 -55 -39 -14 -7
-28 -16 -31 -20 -3 -4 -39 -27 -80 -51 -91 -52 -154 -90 -229 -138 -51 -33
-90 -49 -236 -96 -27 -8 -70 -26 -94 -39 -24 -13 -53 -24 -65 -24 -22 0 -46
-17 -46 -32 0 -4 24 -8 54 -8 30 0 58 -4 61 -10 9 -15 51 -12 65 5 7 8 27 17
45 21 42 7 175 11 175 4 0 -3 -11 -18 -25 -33 -20 -20 -35 -27 -65 -27 -21 0
-40 5 -43 13 -3 8 -12 5 -28 -10 -19 -19 -20 -24 -9 -38 7 -8 11 -17 9 -18
-18 -13 -62 -24 -104 -26 -27 -1 -74 -11 -104 -22 -30 -11 -90 -23 -133 -26
-43 -3 -81 -10 -84 -14 -3 -5 1 -6 9 -3 10 3 17 -3 21 -19 3 -15 15 -27 31
-31 14 -4 25 -12 25 -20 0 -7 7 -19 15 -26 9 -7 14 -19 11 -26 -3 -8 3 -18 12
-23 14 -8 15 -12 5 -22 -21 -21 -15 -37 14 -41 39 -4 38 -20 -3 -48 -49 -33
-107 -35 -139 -5 -14 12 -25 27 -25 34 0 12 -22 14 -56 5 -28 -8 -21 -39 18
-76 15 -14 28 -33 28 -41 0 -13 -9 -13 -62 4 -58 17 -64 18 -75 2 -10 -13 -8
-20 12 -41 27 -26 32 -42 14 -42 -14 0 -89 74 -89 88 0 7 -5 12 -10 12 -10 0
-2 -23 30 -92 l13 -28 334 0 333 0 0 39 c0 35 5 43 49 75 53 39 71 44 71 21 0
-8 5 -24 12 -34 8 -13 8 -29 1 -60 l-11 -41 829 0 829 0 0 870 c0 740 -2 869
-14 864 -8 -3 -23 4 -34 16 -15 17 -36 23 -79 27 -56 4 -113 21 -113 34 0 4
-19 9 -42 11 -24 3 -74 16 -113 31 -60 21 -202 49 -153 29z m-442 -332 c0 -5
-7 -10 -15 -10 -8 0 -15 5 -15 10 0 6 7 10 15 10 8 0 15 -4 15 -10z m160 -389
c0 -9 -31 -49 -72 -95 -16 -17 -18 -18 -18 -3 0 9 3 17 8 17 8 0 32 48 32 66
0 11 14 18 43 23 4 0 7 -3 7 -8z m-650 -844 c0 -8 -11 -19 -25 -25 -38 -18
-41 -15 -15 13 26 28 40 32 40 12z m-60 -61 c0 -3 -4 -8 -10 -11 -5 -3 -10 -1
-10 4 0 6 5 11 10 11 6 0 10 -2 10 -4z m-480 -71 c0 -10 -10 -15 -30 -15 -29
0 -38 9 -23 23 13 13 53 7 53 -8z"/>
<path d="M4591 1814 c0 -11 3 -14 6 -6 3 7 2 16 -1 19 -3 4 -6 -2 -5 -13z"/>
<path d="M5620 1566 c0 -7 -8 -40 -19 -72 -31 -100 -34 -120 -16 -138 40 -39
70 -9 78 80 7 74 -7 144 -30 144 -7 0 -13 -6 -13 -14z"/>
<path d="M5754 1465 c-9 -48 1 -80 28 -92 l23 -11 -25 -10 c-14 -5 -32 -17
-39 -25 -10 -13 -9 -17 8 -26 29 -16 90 16 91 47 0 12 5 22 11 22 13 0 2 39
-19 62 -11 13 -12 21 -4 31 16 19 -4 37 -40 37 -23 0 -28 -5 -34 -35z"/>
<path d="M6779 1450 c-26 -9 -57 -25 -70 -34 l-23 -16 23 0 c12 0 34 9 48 20
14 11 34 20 43 20 10 0 23 7 30 15 15 19 7 18 -51 -5z"/>
<path d="M5327 1436 c-7 -16 1 -26 20 -26 7 0 13 9 13 20 0 23 -25 27 -33 6z"/>
<path d="M6640 1420 c0 -6 -8 -14 -17 -17 -10 -4 -28 -13 -41 -21 -21 -14 -21
-15 -5 -28 10 -7 28 -14 41 -14 17 0 24 7 29 30 3 17 9 30 14 30 5 0 6 7 3 15
-7 17 -24 20 -24 5z"/>
<path d="M5503 1403 c4 -3 -2 -12 -13 -20 -11 -8 -20 -23 -20 -34 0 -22 4 -23
31 -9 21 12 27 70 7 70 -6 0 -8 -3 -5 -7z"/>
<path d="M2410 1307 c-58 -51 -140 -197 -111 -197 47 0 141 111 155 183 8 44
-5 48 -44 14z"/>
<path d="M3140 1310 c0 -5 5 -10 10 -10 6 0 10 5 10 10 0 6 -4 10 -10 10 -5 0
-10 -4 -10 -10z"/>
<path d="M6515 1310 c4 -6 11 -8 16 -5 14 9 11 15 -7 15 -8 0 -12 -5 -9 -10z"/>
<path d="M4620 1282 c0 -20 28 -45 44 -39 23 9 20 22 -9 35 -31 14 -35 15 -35
4z"/>
<path d="M3077 1243 c-16 -15 -5 -42 21 -51 l27 -9 -33 -7 c-27 -6 -31 -10
-21 -22 9 -11 5 -20 -16 -45 -20 -25 -26 -42 -25 -73 3 -74 2 -76 -29 -76 -58
0 -79 -23 -46 -50 11 -9 13 -16 6 -23 -7 -7 -17 -5 -29 6 -17 15 -21 16 -31 3
-9 -11 -10 -20 -1 -35 12 -23 22 -26 48 -12 9 5 24 12 32 15 8 3 23 11 32 18
22 15 31 6 31 -31 0 -23 6 -30 32 -40 17 -6 41 -11 54 -11 21 0 101 36 101 45
0 2 -13 11 -30 20 -40 21 -43 71 -6 85 18 6 27 20 32 45 7 41 0 52 -36 57 -30
4 -38 35 -20 79 22 52 -3 95 -66 113 -11 3 -23 3 -27 -1z"/>
<path d="M4400 1015 c0 -17 30 -35 59 -35 38 0 22 20 -16 21 l-38 2 40 6 c30
5 36 8 22 14 -31 12 -67 8 -67 -8z"/>
<path d="M530 981 c0 -11 31 -24 39 -16 3 3 -1 10 -9 15 -19 12 -30 12 -30 1z"/>
<path d="M4508 918 c-18 -9 -45 -17 -60 -18 -16 0 -28 -4 -28 -9 0 -5 -22 -25
-50 -45 -55 -39 -66 -72 -27 -81 80 -18 446 -33 481 -19 19 7 20 33 5 84 -9
30 -21 42 -63 63 -29 15 -66 29 -82 31 -16 2 -21 1 -11 -1 29 -7 17 -45 -18
-55 -35 -9 -75 0 -75 17 0 7 14 19 31 28 28 13 30 15 12 21 -32 10 -79 3 -115
-16z m252 -68 c0 -5 -7 -10 -16 -10 -8 0 -12 5 -9 10 3 6 10 10 16 10 5 0 9
-4 9 -10z"/>
<path d="M5761 886 c-23 -13 -23 -13 -3 -18 20 -5 42 7 42 24 0 11 -11 9 -39
-6z"/>
<path d="M3770 790 c-12 -7 -8 -10 15 -10 17 0 37 5 45 10 12 7 8 10 -15 10
-16 0 -37 -5 -45 -10z"/>
<path d="M3645 769 c-323 -71 -480 -90 -568 -70 -28 7 -37 6 -34 -2 11 -34
177 -34 343 -2 71 14 144 32 162 40 18 8 50 15 70 15 21 0 47 7 58 15 10 8 17
14 14 13 -3 0 -23 -4 -45 -9z"/>
<path d="M1140 753 c0 -8 5 -11 10 -8 6 4 10 -8 10 -28 0 -30 13 -47 36 -47
10 0 2 29 -11 40 -8 7 -15 22 -15 35 0 13 -6 22 -15 22 -8 0 -15 -7 -15 -14z"/>
<path d="M1212 695 c0 -16 2 -22 5 -12 2 9 2 23 0 30 -3 6 -5 -1 -5 -18z"/>
<path d="M1030 695 c0 -8 4 -15 10 -15 5 0 7 7 4 15 -4 8 -8 15 -10 15 -2 0
-4 -7 -4 -15z"/>
<path d="M4332 683 l27 -4 -30 -44 c-16 -24 -40 -47 -52 -51 -12 -3 -37 -17
-54 -31 -18 -13 -34 -20 -34 -16 -1 4 -2 15 -3 23 -1 19 -52 25 -73 9 -20 -17
-14 -131 10 -178 19 -38 17 -49 -6 -27 -13 13 -16 13 -31 -3 -16 -18 -42 -21
-64 -7 -6 4 -12 3 -12 -2 0 -12 24 -22 51 -22 25 0 24 -25 -1 -50 -17 -17 -21
-18 -35 -4 -8 8 -20 12 -26 8 -8 -4 -9 -3 -5 4 4 7 1 12 -8 12 -20 0 -21 19
-1 26 28 11 15 19 -28 18 -70 -1 -75 -3 -53 -19 17 -13 17 -15 3 -21 -10 -3
-25 -3 -34 2 -10 4 -22 6 -27 5 -5 -1 -30 -4 -55 -6 -61 -5 -61 -5 -27 -19
l28 -13 -32 -23 c-21 -15 -28 -25 -20 -30 8 -5 3 -15 -17 -30 -19 -15 -21 -20
-8 -15 66 26 129 44 137 39 5 -4 35 -8 67 -10 31 -2 108 -8 171 -14 63 -5 145
-10 183 -10 38 0 67 -4 67 -10 0 -6 -55 -10 -142 -11 -152 -1 -159 -16 -8 -18
47 -1 121 -8 165 -16 78 -14 80 -14 98 6 12 15 14 25 7 34 -5 6 -7 15 -3 18 3
4 -18 8 -48 8 -39 1 -46 3 -27 8 35 8 29 15 -54 74 -81 57 -103 84 -124 152
-16 49 -16 53 1 79 10 15 39 41 64 58 25 18 49 37 53 43 4 6 26 20 49 30 l41
19 -22 18 c-12 10 -36 17 -54 17 -29 -2 -29 -2 -4 -6z m-346 -413 c8 0 14 -4
14 -10 0 -11 -33 -13 -67 -4 -35 10 -28 27 8 20 17 -3 38 -6 45 -6z m261 -32
c-2 -7 -13 -12 -23 -11 -10 2 -41 3 -69 4 -67 2 -30 17 43 18 39 1 52 -2 49
-11z"/>
<path d="M1104 655 c-12 -9 -14 -14 -6 -15 7 0 20 7 28 15 20 19 4 20 -22 0z"/>
<path d="M1138 633 c6 -2 18 -2 25 0 6 3 1 5 -13 5 -14 0 -19 -2 -12 -5z"/>
<path d="M3540 557 c0 -13 -9 -33 -20 -45 -28 -30 -25 -37 6 -13 15 12 35 21
44 21 24 0 15 37 -11 51 -16 8 -19 6 -19 -14z"/>
<path d="M2735 520 c-71 -21 -148 -46 -170 -54 -34 -12 -36 -15 -14 -15 24 -1
315 91 327 104 10 9 -12 4 -143 -35z"/>
<path d="M3600 556 c0 -2 15 -6 34 -8 19 -2 32 0 30 4 -5 8 -64 12 -64 4z"/>
<path d="M1930 453 c30 -9 105 -17 165 -19 l110 -3 -125 19 c-69 11 -143 19
-165 19 l-40 -1 55 -15z"/>
<path d="M2280 410 c-12 -8 -9 -10 13 -10 16 0 26 4 22 10 -8 12 -16 12 -35 0z"/>
<path d="M2386 410 c6 -6 21 -6 39 -1 30 9 30 9 -9 10 -26 1 -37 -2 -30 -9z"/>
<path d="M1680 395 c0 -1 16 -13 36 -24 26 -16 42 -37 61 -81 15 -35 33 -60
41 -60 10 0 5 -9 -13 -26 -38 -35 -21 -49 36 -28 24 9 60 18 79 19 20 2 62 13
95 26 55 22 60 27 63 57 4 37 -8 40 -65 17 -46 -20 -53 -19 -53 5 0 24 -34 47
-81 56 -18 4 -38 12 -44 19 -9 10 -155 30 -155 20z m254 -85 c16 -16 17 -22 6
-34 -14 -18 -51 -21 -78 -7 -9 5 -25 12 -35 15 -24 7 -33 36 -16 47 21 15 101
1 123 -21z"/>
<path d="M3550 383 c-12 -9 -37 -19 -54 -24 -27 -6 -24 -7 20 -8 45 -1 52 2
57 21 8 29 5 31 -23 11z"/>
<path d="M1607 344 c-4 -4 -7 -53 -7 -108 0 -69 3 -96 10 -86 9 13 10 13 10 0
0 -8 -9 -21 -20 -28 -14 -8 -20 -23 -20 -47 0 -19 3 -35 8 -35 23 1 97 93 87
110 -3 5 1 20 9 32 9 12 16 38 16 58 0 35 -32 100 -49 100 -5 0 -16 2 -23 5
-8 3 -17 2 -21 -1z"/>
<path d="M3736 331 c-3 -5 -17 -12 -32 -15 -14 -4 -35 -16 -47 -27 l-22 -20
40 17 c43 18 94 54 77 54 -6 0 -13 -4 -16 -9z"/>
<path d="M3410 320 c-12 -8 -9 -10 13 -10 15 0 27 5 27 10 0 13 -20 13 -40 0z"/>
<path d="M3515 290 c-3 -6 1 -7 9 -4 18 7 21 14 7 14 -6 0 -13 -4 -16 -10z"/>
<path d="M3149 277 c5 -5 19 -7 32 -5 20 3 19 5 -9 9 -20 3 -29 2 -23 -4z"/>
<path d="M3197 256 c-16 -12 -15 -14 10 -25 28 -11 372 -52 422 -50 20 1 -384
88 -409 88 -3 0 -13 -6 -23 -13z"/>
<path d="M5414 125 c3 -16 8 -51 11 -78 3 -26 11 -47 17 -47 6 0 8 12 4 31 -3
17 -6 44 -6 58 0 15 -7 36 -15 47 -15 18 -16 18 -11 -11z"/>
<path d="M6255 79 c-4 -6 -4 -13 -1 -16 8 -8 36 5 36 17 0 13 -27 13 -35 -1z"/>
<path d="M4662 47 c1 -12 6 -28 11 -34 11 -15 77 -17 77 -3 0 6 -4 10 -8 10
-5 0 -17 8 -28 18 -32 31 -53 34 -52 9z"/>
<path d="M6240 20 c0 -15 7 -20 25 -20 l25 0 -20 20 c-25 25 -30 25 -30 0z"/>
</g>
</svg>
